<svg xmlns="http://www.w3.org/2000/svg" xmlns:xlink="http://www.w3.org/1999/xlink" version="1.1" x="0px" y="0px" viewBox="0 0 100 125" enable-background="new 0 0 100 100" xml:space="preserve"><g><path d="M87,31.494c-1.484,0-3,1.205-3,2.687V42H39.42c-1.624,0-3.07,0.412-4.271,1.134c-1.149-2.037-2.869-3.539-5.103-4.654   C26.924,36.916,23.891,37,23.555,37H16V23.604c0-1.483-1.517-2.687-3-2.687s-3,1.203-3,2.687v52.885c0,1.483,1.517,2.687,3,2.687   s3-1.203,3-2.687V69h68v7.488c0,1.483,1.516,2.687,3,2.687c1.482,0,3-1.203,3-2.687V34.181C90,32.699,88.482,31.494,87,31.494z    M31.224,50.005C31.224,50.006,31.224,50.002,31.224,50.005L31.224,50.005L31.224,50.005L31.224,50.005   C31.447,49.939,31.224,50.002,31.224,50.005C31.224,50.007,31.224,50.002,31.224,50.005c0,1.47,1.216,2.728,2.687,2.728   c1.475,0,2.785-0.912,2.798-2.382C36.74,49.149,37.331,48,39.422,48H84v15H16V42h7.555c0.022,0,2.103,0.121,4.089,1.114   C30.204,44.394,31.224,46.673,31.224,50.005"/><path d="M40.508,58H78.52c1.482,0,2.687-1.517,2.687-3s-1.204-3-2.687-3H40.508c-1.483,0-2.687,1.517-2.687,3S39.025,58,40.508,58z   "/></g><text x="0" y="115" fill="#000000" font-size="5px" font-weight="bold" font-family="'Helvetica Neue', Helvetica, Arial-Unicode, Arial, Sans-serif">Created by Ziggy</text><text x="0" y="120" fill="#000000" font-size="5px" font-weight="bold" font-family="'Helvetica Neue', Helvetica, Arial-Unicode, Arial, Sans-serif">from the Noun Project</text></svg>