<svg xmlns="http://www.w3.org/2000/svg" xmlns:xlink="http://www.w3.org/1999/xlink" version="1.1" x="0px" y="0px" viewBox="0 0 100 125" enable-background="new 0 0 100 100" xml:space="preserve"><path d="M44.555,74.093c0,1.481,0.721,2.223,2.164,2.223c1.447,0,2.17-0.742,2.17-2.223V54.077h2.223v20.017  c0,1.481,0.725,2.223,2.17,2.223s2.17-0.742,2.17-2.223v-34.1h1.057v12.283c0,0.777,0.266,1.342,0.795,1.694  c0.527,0.353,1.072,0.353,1.641,0c0.563-0.352,0.844-0.917,0.844-1.694V39.04c0-1.412-0.479-2.505-1.428-3.282  c-0.951-0.777-2.273-1.167-3.967-1.167h-8.678c-1.623,0-2.943,0.354-3.965,1.06c-1.023,0.706-1.537,1.8-1.537,3.284v14.084  c0,0.634,0.283,1.093,0.848,1.375c0.564,0.283,1.111,0.283,1.639,0c0.527-0.282,0.795-0.741,0.795-1.375V39.994h1.061V74.093z"/><path d="M45.398,28.185c0,1.237,0.439,2.295,1.32,3.177c0.885,0.882,1.941,1.325,3.174,1.325c1.238,0,2.293-0.443,3.18-1.325  c0.879-0.881,1.32-1.959,1.32-3.231c0-1.198-0.441-2.241-1.32-3.122c-0.887-0.882-1.941-1.325-3.18-1.325  c-1.232,0-2.289,0.443-3.174,1.325C45.838,25.89,45.398,26.95,45.398,28.185z"/><text x="0" y="115" fill="#000000" font-size="5px" font-weight="bold" font-family="'Helvetica Neue', Helvetica, Arial-Unicode, Arial, Sans-serif">Created by Alexander Smith</text><text x="0" y="120" fill="#000000" font-size="5px" font-weight="bold" font-family="'Helvetica Neue', Helvetica, Arial-Unicode, Arial, Sans-serif">from the Noun Project</text></svg>