<svg xmlns="http://www.w3.org/2000/svg" xmlns:xlink="http://www.w3.org/1999/xlink" version="1.1" x="0px" y="0px" viewBox="0 0 40.518 13.0575" enable-background="new 0 0 40.518 10.446" xml:space="preserve"><polyline fill="none" stroke="#000000" stroke-width="0.502" points="2.99,0.251 40.267,0.251 40.267,10.195 0.251,10.195   0.251,0.251 6.821,0.251 "/><line fill="none" stroke="#000000" stroke-width="0.5" x1="10.388" y1="5.176" x2="10.388" y2="0.271"/><line fill="none" stroke="#000000" stroke-width="0.5" x1="20.388" y1="5.176" x2="20.388" y2="0.271"/><line fill="none" stroke="#000000" stroke-width="0.5" x1="30.388" y1="5.176" x2="30.388" y2="0.271"/><line fill="none" stroke="#000000" stroke-width="0.5" x1="32.388" y1="3.176" x2="32.388" y2="0.271"/><line fill="none" stroke="#000000" stroke-width="0.5" x1="34.388" y1="3.176" x2="34.388" y2="0.271"/><line fill="none" stroke="#000000" stroke-width="0.5" x1="36.388" y1="3.176" x2="36.388" y2="0.271"/><line fill="none" stroke="#000000" stroke-width="0.5" x1="38.388" y1="3.176" x2="38.388" y2="0.271"/><line fill="none" stroke="#000000" stroke-width="0.5" x1="22.388" y1="3.176" x2="22.388" y2="0.271"/><line fill="none" stroke="#000000" stroke-width="0.5" x1="24.388" y1="3.176" x2="24.388" y2="0.271"/><line fill="none" stroke="#000000" stroke-width="0.5" x1="26.388" y1="3.176" x2="26.388" y2="0.271"/><line fill="none" stroke="#000000" stroke-width="0.5" x1="28.388" y1="3.176" x2="28.388" y2="0.271"/><line fill="none" stroke="#000000" stroke-width="0.5" x1="12.388" y1="3.176" x2="12.388" y2="0.271"/><line fill="none" stroke="#000000" stroke-width="0.5" x1="14.388" y1="3.176" x2="14.388" y2="0.271"/><line fill="none" stroke="#000000" stroke-width="0.5" x1="16.388" y1="3.176" x2="16.388" y2="0.271"/><line fill="none" stroke="#000000" stroke-width="0.5" x1="18.388" y1="3.176" x2="18.388" y2="0.271"/><line fill="none" stroke="#000000" stroke-width="0.5" x1="2.388" y1="3.176" x2="2.388" y2="0.271"/><line fill="none" stroke="#000000" stroke-width="0.5" x1="4.388" y1="3.176" x2="4.388" y2="0.271"/><line fill="none" stroke="#000000" stroke-width="0.5" x1="6.388" y1="3.176" x2="6.388" y2="0.271"/><line fill="none" stroke="#000000" stroke-width="0.5" x1="8.388" y1="3.176" x2="8.388" y2="0.271"/><text x="0" y="25.445999999999998" fill="#000000" font-size="5px" font-weight="bold" font-family="'Helvetica Neue', Helvetica, Arial-Unicode, Arial, Sans-serif">Created by 8ties®</text><text x="0" y="30.445999999999998" fill="#000000" font-size="5px" font-weight="bold" font-family="'Helvetica Neue', Helvetica, Arial-Unicode, Arial, Sans-serif">from the Noun Project</text></svg>